<mxfile host="app.diagrams.net" modified="2024-05-02T16:10:17.341Z" agent="Mozilla/5.0 (Windows NT 10.0; Win64; x64) AppleWebKit/537.36 (KHTML, like Gecko) Chrome/124.0.0.0 Safari/537.36" etag="raa9o0a6pdB-R6xW5k3r" version="24.3.1" type="device">
  <diagram name="Page-1" id="1QEQwlnpWoJ45kbov8aj">
    <mxGraphModel dx="1461" dy="772" grid="0" gridSize="10" guides="1" tooltips="1" connect="1" arrows="1" fold="1" page="0" pageScale="1" pageWidth="850" pageHeight="1100" math="0" shadow="0">
      <root>
        <mxCell id="0" />
        <mxCell id="1" parent="0" />
        <mxCell id="hYPLvAI-Ytzi1r3vCSzU-3" value="" style="edgeStyle=orthogonalEdgeStyle;rounded=0;orthogonalLoop=1;jettySize=auto;html=1;" parent="1" source="hYPLvAI-Ytzi1r3vCSzU-1" target="hYPLvAI-Ytzi1r3vCSzU-2" edge="1">
          <mxGeometry relative="1" as="geometry" />
        </mxCell>
        <mxCell id="hYPLvAI-Ytzi1r3vCSzU-1" value="Preprocessing&amp;nbsp; Data" style="rounded=1;whiteSpace=wrap;html=1;" parent="1" vertex="1">
          <mxGeometry x="10" y="330" width="120" height="60" as="geometry" />
        </mxCell>
        <mxCell id="hYPLvAI-Ytzi1r3vCSzU-6" value="" style="edgeStyle=orthogonalEdgeStyle;rounded=0;orthogonalLoop=1;jettySize=auto;html=1;" parent="1" source="hYPLvAI-Ytzi1r3vCSzU-2" target="hYPLvAI-Ytzi1r3vCSzU-5" edge="1">
          <mxGeometry relative="1" as="geometry" />
        </mxCell>
        <mxCell id="hYPLvAI-Ytzi1r3vCSzU-2" value="&lt;div&gt;Data into Word2vec&lt;/div&gt;" style="whiteSpace=wrap;html=1;rounded=1;" parent="1" vertex="1">
          <mxGeometry x="150" y="320" width="110" height="80" as="geometry" />
        </mxCell>
        <mxCell id="hYPLvAI-Ytzi1r3vCSzU-8" value="" style="edgeStyle=orthogonalEdgeStyle;rounded=0;orthogonalLoop=1;jettySize=auto;html=1;" parent="1" source="hYPLvAI-Ytzi1r3vCSzU-5" target="hYPLvAI-Ytzi1r3vCSzU-7" edge="1">
          <mxGeometry relative="1" as="geometry" />
        </mxCell>
        <mxCell id="hYPLvAI-Ytzi1r3vCSzU-10" value="" style="edgeStyle=orthogonalEdgeStyle;rounded=0;orthogonalLoop=1;jettySize=auto;html=1;" parent="1" source="hYPLvAI-Ytzi1r3vCSzU-5" target="hYPLvAI-Ytzi1r3vCSzU-9" edge="1">
          <mxGeometry relative="1" as="geometry" />
        </mxCell>
        <mxCell id="hYPLvAI-Ytzi1r3vCSzU-5" value="Split Data into 0 and 1" style="whiteSpace=wrap;html=1;rounded=1;" parent="1" vertex="1">
          <mxGeometry x="290" y="320" width="130" height="80" as="geometry" />
        </mxCell>
        <mxCell id="hYPLvAI-Ytzi1r3vCSzU-12" value="" style="edgeStyle=orthogonalEdgeStyle;rounded=0;orthogonalLoop=1;jettySize=auto;html=1;" parent="1" source="hYPLvAI-Ytzi1r3vCSzU-7" target="hYPLvAI-Ytzi1r3vCSzU-11" edge="1">
          <mxGeometry relative="1" as="geometry" />
        </mxCell>
        <mxCell id="hYPLvAI-Ytzi1r3vCSzU-7" value="&#xa;&lt;span style=&quot;color: rgb(0, 0, 0); font-family: Helvetica; font-size: 12px; font-style: normal; font-variant-ligatures: normal; font-variant-caps: normal; font-weight: 400; letter-spacing: normal; orphans: 2; text-align: center; text-indent: 0px; text-transform: none; widows: 2; word-spacing: 0px; -webkit-text-stroke-width: 0px; white-space: normal; background-color: rgb(251, 251, 251); text-decoration-thickness: initial; text-decoration-style: initial; text-decoration-color: initial; display: inline !important; float: none;&quot;&gt;Split into train, test and validation&lt;/span&gt;&#xa;&#xa;" style="whiteSpace=wrap;html=1;rounded=1;" parent="1" vertex="1">
          <mxGeometry x="297.5" y="180" width="115" height="60" as="geometry" />
        </mxCell>
        <mxCell id="hYPLvAI-Ytzi1r3vCSzU-14" value="" style="edgeStyle=orthogonalEdgeStyle;rounded=0;orthogonalLoop=1;jettySize=auto;html=1;" parent="1" source="hYPLvAI-Ytzi1r3vCSzU-9" target="hYPLvAI-Ytzi1r3vCSzU-13" edge="1">
          <mxGeometry relative="1" as="geometry" />
        </mxCell>
        <mxCell id="hYPLvAI-Ytzi1r3vCSzU-9" value="Split into train, test and validation" style="whiteSpace=wrap;html=1;rounded=1;" parent="1" vertex="1">
          <mxGeometry x="300" y="480" width="110" height="70" as="geometry" />
        </mxCell>
        <mxCell id="hYPLvAI-Ytzi1r3vCSzU-16" value="" style="edgeStyle=orthogonalEdgeStyle;rounded=0;orthogonalLoop=1;jettySize=auto;html=1;" parent="1" source="hYPLvAI-Ytzi1r3vCSzU-11" target="hYPLvAI-Ytzi1r3vCSzU-15" edge="1">
          <mxGeometry relative="1" as="geometry" />
        </mxCell>
        <mxCell id="hYPLvAI-Ytzi1r3vCSzU-11" value="Train GANs" style="whiteSpace=wrap;html=1;rounded=1;" parent="1" vertex="1">
          <mxGeometry x="440" y="180" width="110" height="60" as="geometry" />
        </mxCell>
        <mxCell id="hYPLvAI-Ytzi1r3vCSzU-18" value="" style="edgeStyle=orthogonalEdgeStyle;rounded=0;orthogonalLoop=1;jettySize=auto;html=1;" parent="1" source="hYPLvAI-Ytzi1r3vCSzU-13" target="hYPLvAI-Ytzi1r3vCSzU-17" edge="1">
          <mxGeometry relative="1" as="geometry" />
        </mxCell>
        <mxCell id="hYPLvAI-Ytzi1r3vCSzU-13" value="Train GANs" style="whiteSpace=wrap;html=1;rounded=1;" parent="1" vertex="1">
          <mxGeometry x="440" y="480" width="110" height="70" as="geometry" />
        </mxCell>
        <mxCell id="t0ARaRhXS-44-RHQ76Vj-1" value="" style="edgeStyle=orthogonalEdgeStyle;rounded=0;orthogonalLoop=1;jettySize=auto;html=1;" edge="1" parent="1" source="hYPLvAI-Ytzi1r3vCSzU-15" target="hYPLvAI-Ytzi1r3vCSzU-23">
          <mxGeometry relative="1" as="geometry" />
        </mxCell>
        <mxCell id="hYPLvAI-Ytzi1r3vCSzU-15" value="Predict&amp;nbsp;" style="whiteSpace=wrap;html=1;rounded=1;" parent="1" vertex="1">
          <mxGeometry x="580" y="180" width="120" height="60" as="geometry" />
        </mxCell>
        <mxCell id="t0ARaRhXS-44-RHQ76Vj-2" value="" style="edgeStyle=orthogonalEdgeStyle;rounded=0;orthogonalLoop=1;jettySize=auto;html=1;" edge="1" parent="1" source="hYPLvAI-Ytzi1r3vCSzU-17" target="hYPLvAI-Ytzi1r3vCSzU-23">
          <mxGeometry relative="1" as="geometry" />
        </mxCell>
        <mxCell id="hYPLvAI-Ytzi1r3vCSzU-17" value="Predict" style="whiteSpace=wrap;html=1;rounded=1;" parent="1" vertex="1">
          <mxGeometry x="580" y="485" width="120" height="60" as="geometry" />
        </mxCell>
        <mxCell id="hYPLvAI-Ytzi1r3vCSzU-23" value="Compare and Predict with the highest&amp;nbsp;probability" style="whiteSpace=wrap;html=1;rounded=1;" parent="1" vertex="1">
          <mxGeometry x="570" y="320" width="140" height="60" as="geometry" />
        </mxCell>
      </root>
    </mxGraphModel>
  </diagram>
</mxfile>
